<?xml version="1.0" standalone="no"?>
<!DOCTYPE svg PUBLIC "-//W3C//DTD SVG 20010904//EN"
 "http://www.w3.org/TR/2001/REC-SVG-20010904/DTD/svg10.dtd">
<svg version="1.0" xmlns="http://www.w3.org/2000/svg"
 width="1689.000000pt" height="1689.000000pt" viewBox="0 0 1689.000000 1689.000000"
 preserveAspectRatio="xMidYMid meet">
<metadata>
Created by potrace 1.11, written by Peter Selinger 2001-2013
</metadata>
<g transform="translate(0.000000,1689.000000) scale(0.100000,-0.100000)"
fill="#000000" stroke="none">
<path d="M1180 8445 l0 -8445 7265 0 7265 0 0 8445 0 8445 -7265 0 -7265 0 0
-8445z m14175 0 l0 -8090 -6910 0 -6910 0 -3 8080 c-1 4444 0 8086 3 8093 3
10 1391 12 6912 10 l6908 -3 0 -8090z"/>
<path d="M2540 9625 l0 -5905 5905 0 5905 0 0 5905 0 5905 -5905 0 -5905 0 0
-5905z m4779 4890 c78 -44 106 -55 142 -55 42 0 60 -11 345 -220 279 -203 304
-224 341 -282 32 -51 71 -89 207 -198 l167 -135 223 -325 c123 -179 293 -426
379 -549 l155 -224 6 -141 c4 -78 9 -175 12 -216 l6 -75 59 -37 c33 -21 61
-43 64 -50 2 -7 11 -39 20 -71 16 -56 22 -63 192 -220 l175 -162 181 -52 c190
-56 197 -56 197 -5 0 12 6 22 13 22 28 -1 188 -30 200 -36 6 -4 155 -113 330
-241 175 -129 346 -247 380 -262 87 -40 923 -450 1567 -769 l545 -269 195
-168 c107 -92 277 -244 378 -337 l182 -169 -2 -2587 -3 -2587 -504 -3 c-423
-2 -507 0 -520 12 -11 10 -98 23 -276 41 -143 15 -264 30 -270 34 -5 5 -115
83 -243 176 -129 92 -236 174 -239 181 -4 12 11 161 23 225 l5 25 -148 -17
c-221 -27 -198 -34 -216 67 -9 48 -17 87 -19 88 -2 1 -69 33 -150 70 l-146 67
-236 -16 c-130 -9 -241 -15 -247 -13 -11 4 92 158 113 169 7 3 47 14 88 24 41
10 77 19 79 21 2 2 -13 22 -33 45 -38 45 -44 59 -23 59 6 0 151 -31 322 -69
170 -38 311 -69 312 -68 1 1 -80 40 -180 86 -100 46 -197 95 -216 109 -29 23
-31 27 -15 33 11 4 37 8 59 9 22 1 48 5 59 9 21 8 -5 20 -274 125 -91 35 -188
73 -217 85 l-52 20 15 -41 c8 -22 14 -44 14 -48 0 -10 -761 144 -830 168 -95
33 -77 42 165 88 121 22 229 43 240 46 11 2 -41 7 -115 11 -74 5 -136 10 -138
11 -2 2 4 21 13 41 8 21 13 40 10 43 -2 2 -50 -12 -105 -32 -56 -20 -108 -36
-115 -36 -8 0 -26 11 -42 24 l-27 24 32 68 c17 38 28 70 23 72 -4 1 -55 -8
-112 -22 -130 -30 -289 -60 -294 -54 -3 2 0 31 5 64 17 102 21 95 -92 147
l-102 47 -90 -59 c-88 -58 -168 -91 -270 -110 -50 -9 -54 -6 -30 27 19 28 12
28 -67 -4 l-64 -26 -155 11 c-85 7 -156 14 -159 17 -3 2 15 25 39 49 48 49 43
54 -36 34 -48 -12 -72 -8 -224 38 l-85 25 310 85 310 85 66 -35 65 -36 75 24
74 23 403 -77 c313 -61 410 -83 433 -100 16 -11 42 -30 58 -42 20 -15 127 -42
366 -95 186 -41 340 -72 343 -70 2 3 -4 27 -13 55 -11 34 -22 51 -33 51 -9 0
-157 18 -327 40 l-311 39 -107 73 -108 72 88 33 c48 17 95 32 104 32 9 1 48
-11 85 -25 52 -20 93 -27 169 -30 55 -3 128 -6 163 -8 34 -2 62 0 62 4 0 4
-18 19 -39 33 -37 25 -58 28 -348 57 -169 16 -318 30 -330 30 -30 0 -29 6 7
88 l31 68 90 34 c49 18 92 37 94 40 3 4 -30 20 -73 35 -126 44 -172 66 -172
83 0 17 -31 18 476 -14 l272 -17 33 -70 34 -69 70 7 c64 7 72 11 105 46 l35
38 180 -81 c99 -45 182 -83 184 -84 2 -2 -43 -54 -99 -116 -100 -110 -105
-114 -178 -139 -42 -14 -77 -30 -79 -35 -2 -5 19 -32 47 -59 l49 -48 73 28
c40 16 94 38 121 50 l47 22 -100 19 -101 19 153 125 c83 69 157 128 162 131 6
3 56 1 111 -6 l100 -12 40 45 41 45 93 -22 c51 -11 100 -21 109 -21 9 0 28 16
42 34 27 37 24 36 213 52 54 4 80 11 84 21 3 7 3 16 0 20 -3 3 -83 17 -177 31
-136 21 -170 29 -168 41 2 9 24 19 56 26 29 7 55 14 57 17 2 2 -305 63 -683
136 l-687 132 -175 66 c-141 54 -185 76 -228 112 -50 42 -93 105 -80 117 3 3
81 -24 174 -59 93 -35 170 -62 172 -61 2 1 -11 26 -28 55 -17 29 -29 54 -27
56 4 4 360 -145 513 -215 51 -22 98 -39 106 -36 8 3 27 31 42 62 31 65 29 68
-50 78 l-54 6 -29 94 c-17 51 -40 133 -52 182 -12 48 -27 93 -33 100 -6 6 -74
30 -151 53 -139 42 -141 42 -249 35 -96 -7 -129 -14 -295 -70 l-186 -62 -3 27
-3 28 -116 -45 c-64 -25 -146 -59 -182 -78 -98 -48 -118 -50 -242 -24 -60 13
-109 26 -109 30 0 14 81 60 205 117 125 58 136 61 285 81 85 12 164 23 175 26
12 3 37 34 63 80 l44 75 118 0 118 0 124 101 c68 56 128 103 134 106 7 2 35
-7 63 -21 28 -14 53 -26 56 -26 7 0 6 40 -1 79 l-6 31 -104 0 -103 0 -80 -65
c-69 -56 -86 -65 -132 -71 -49 -6 -60 -12 -114 -65 -57 -56 -66 -61 -165 -89
-58 -17 -108 -30 -112 -30 -3 0 2 23 13 50 10 28 17 50 14 50 -13 0 -170 -84
-414 -222 l-266 -151 -254 -14 -254 -14 -146 -73 c-125 -63 -175 -82 -351
-130 -252 -70 -242 -66 -368 -149 l-104 -68 -147 -29 c-81 -16 -155 -32 -164
-36 -29 -11 -19 22 14 51 40 33 113 71 203 104 l69 26 59 110 c32 61 64 115
71 122 7 6 108 40 225 75 166 50 216 69 228 87 9 12 14 24 12 26 -2 2 -102
-17 -222 -42 -147 -30 -221 -42 -228 -35 -7 7 13 26 61 58 39 26 71 48 71 50
0 3 -6 1 -299 -123 l-223 -94 -104 24 c-57 13 -106 22 -109 19 -3 -3 -5 -18
-5 -33 0 -26 -5 -30 -66 -49 -36 -11 -86 -20 -111 -20 -32 0 -61 -9 -97 -29
-36 -20 -98 -38 -213 -61 -90 -18 -165 -31 -169 -28 -3 3 33 76 80 162 47 85
86 158 86 161 0 3 -29 5 -64 5 l-64 0 -28 -45 c-18 -28 -38 -46 -54 -49 -44
-9 -292 -37 -296 -34 -1 2 44 42 101 88 58 47 105 88 105 92 0 4 -10 14 -22
22 -55 35 -62 33 -309 -98 -259 -138 -250 -135 -398 -118 l-54 7 99 67 c54 38
254 166 443 286 l345 218 62 -15 63 -15 124 58 c100 47 128 56 144 48 16 -9
57 19 286 197 l266 209 57 -14 c32 -7 62 -10 68 -7 6 4 70 51 142 105 l132 99
38 -22 c22 -13 47 -29 57 -37 9 -9 19 -13 21 -11 1 2 -14 67 -36 144 l-38 140
22 18 c93 77 90 72 83 139 -4 34 -11 75 -16 91 -7 25 -2 42 31 105 41 78 42
92 9 92 -10 0 -19 4 -19 10 0 5 67 93 150 195 82 102 145 185 139 185 -5 0
-42 -22 -82 -48 -90 -61 -162 -103 -168 -98 -2 2 -19 6 -37 9 -31 6 -39 2 -96
-53 -62 -60 -63 -60 -81 -40 -24 26 -34 26 -133 -11 l-85 -31 -111 27 c-61 15
-113 29 -115 31 -1 1 15 8 37 13 66 18 152 77 242 165 47 46 110 100 142 119
61 39 61 38 79 147 15 89 18 94 90 153 54 44 57 48 84 143 27 95 30 101 124
213 53 64 103 124 111 134 21 28 51 445 32 452 -19 7 -11 38 46 165 37 84 48
123 57 199 l11 93 -64 102 c-69 110 -84 126 -118 126 -25 0 -27 6 -45 138
l-12 93 -45 31 c-42 29 -44 33 -38 67 3 20 11 81 17 137 l12 100 -31 83 -32
83 0 297 0 298 45 59 c24 32 44 64 44 69 1 6 -55 48 -123 95 l-124 85 -39 82
-39 82 -118 -70 -118 -70 -129 -6 -130 -6 -137 -80 c-111 -65 -211 -137 -315
-228 -5 -4 -2 -17 6 -30 9 -14 23 -84 32 -158 l17 -134 -47 -88 c-36 -69 -50
-109 -62 -181 -13 -77 -25 -108 -71 -190 -51 -91 -72 -113 -87 -88 -13 21 -22
7 -45 -72 -12 -46 -26 -87 -30 -91 -4 -4 -38 -12 -75 -18 -38 -5 -70 -11 -73
-13 -2 -2 8 -27 23 -55 l26 -52 29 18 c32 19 45 14 36 -14 -3 -10 -79 -131
-169 -268 l-162 -250 -192 -100 c-106 -55 -194 -105 -195 -111 -3 -13 -275
-227 -327 -258 -41 -24 -94 -80 -80 -84 5 -2 9 -42 9 -89 0 -84 -1 -87 -45
-157 -44 -71 -45 -74 -45 -158 l0 -85 -72 -69 c-69 -65 -79 -71 -186 -107 -62
-21 -116 -36 -121 -33 -4 3 -23 35 -40 71 l-33 67 -29 -28 c-15 -15 -27 -30
-26 -34 1 -4 -36 -67 -82 -140 l-84 -132 7 -128 7 -128 -47 -192 c-56 -233
-55 -238 47 -191 35 16 67 26 71 23 4 -4 15 -38 26 -77 l19 -69 17 26 c10 15
58 54 106 88 89 60 89 61 186 218 192 311 255 401 322 462 66 61 88 71 98 46
3 -7 -74 -172 -171 -366 l-176 -353 48 28 c26 16 81 49 122 74 l75 46 21 70
c18 62 25 72 60 92 48 28 138 56 162 51 14 -3 9 -13 -26 -51 -25 -27 -40 -51
-35 -56 5 -5 37 -15 71 -23 46 -12 65 -13 71 -4 5 6 45 72 90 146 75 127 89
144 221 268 93 88 145 131 153 126 33 -20 78 -60 78 -70 0 -6 -18 -24 -40 -39
-50 -35 -51 -40 -2 -19 82 36 100 27 68 -35 -14 -27 -39 -40 -248 -135 l-78
-35 0 -98 0 -98 -263 -267 c-259 -265 -263 -268 -322 -284 -55 -15 -70 -26
-182 -135 -68 -66 -128 -119 -134 -119 -6 0 -27 10 -46 21 l-35 22 -106 -112
-107 -111 -99 -7 -99 -6 -131 -97 -131 -97 -175 -59 -175 -58 110 -11 c61 -5
116 -14 123 -18 20 -13 14 -26 -15 -33 -16 -4 -128 -42 -250 -85 -122 -44
-228 -79 -235 -79 -8 0 -32 15 -54 33 l-39 34 -102 -23 c-60 -14 -160 -48
-244 -84 l-142 -60 -100 24 c-55 14 -103 29 -108 33 -13 14 -129 223 -129 233
0 5 6 10 13 10 9 0 9 2 -1 9 -15 9 106 93 234 161 l82 44 69 -26 70 -26 206
38 205 37 122 99 c67 54 132 108 145 119 13 11 85 104 160 208 123 168 148
197 245 278 l109 90 37 112 c20 62 42 121 49 132 7 11 22 63 35 115 20 84 22
110 16 232 l-7 137 78 123 c69 108 86 144 144 313 l66 190 199 110 c186 102
204 114 274 190 41 44 89 87 107 96 17 9 91 64 165 122 l134 105 53 218 52
217 99 119 98 120 4 131 5 132 80 175 c44 96 101 217 127 267 41 83 46 100 46
160 0 38 3 98 6 135 6 62 9 68 36 79 15 6 49 40 75 75 26 35 50 64 54 64 4 0
24 -10 44 -21 20 -12 37 -20 39 -18 1 2 18 42 37 89 l36 85 69 5 69 5 7 40 c4
22 18 150 32 285 14 135 31 285 37 334 l11 89 179 209 c99 114 185 208 190
208 6 0 55 -25 108 -55z m115 -1268 c8 -49 12 -56 28 -51 33 10 30 -22 -12
-115 -24 -53 -40 -103 -38 -118 3 -26 3 -26 63 25 51 45 66 52 102 52 42 0 42
1 78 68 47 89 72 118 118 137 34 14 38 14 44 0 17 -45 -10 -133 -122 -411
-140 -347 -136 -337 -192 -395 -39 -40 -43 -49 -34 -67 6 -11 11 -25 11 -30 0
-6 -31 -58 -70 -116 -38 -59 -70 -113 -70 -121 0 -7 -5 -17 -11 -21 -22 -13
-29 13 -21 79 5 37 6 67 3 67 -3 0 -56 -17 -118 -37 -84 -28 -116 -34 -124
-26 -11 11 33 47 194 160 35 24 44 36 40 52 -3 13 35 99 114 253 145 285 141
275 105 249 -52 -37 -75 -36 -103 3 l-25 36 -63 -71 c-59 -66 -65 -70 -95 -63
-17 4 -47 8 -66 9 -45 2 -44 13 9 103 28 49 48 72 61 72 21 0 23 9 41 140 11
84 12 85 67 143 31 31 61 56 67 54 5 -2 14 -29 19 -60z m-474 -252 c29 -31 31
-31 70 1 l31 27 30 -29 c23 -22 29 -36 29 -71 0 -37 -10 -58 -67 -143 -39 -57
-74 -99 -82 -97 -8 1 -21 21 -28 44 -9 25 -22 45 -34 48 -24 8 -26 53 -4 96
12 22 14 45 9 89 -8 69 5 78 46 35z m366 -2851 l7 -36 43 43 c54 53 77 49 62
-11 -6 -22 -8 -43 -5 -47 3 -3 29 9 57 26 63 39 156 75 170 66 12 -8 2 -102
-25 -231 -3 -14 -31 -37 -75 -63 l-70 -42 -28 19 -27 20 -100 -94 c-55 -52
-122 -106 -148 -120 -89 -46 -90 -8 -2 144 36 62 63 117 60 122 -3 6 -15 10
-27 10 -16 0 -19 5 -14 24 11 43 98 216 107 210 4 -2 11 -21 15 -40z m-285
-605 c3 -14 9 -54 13 -90 l6 -64 -200 -193 -200 -193 -55 -6 c-30 -3 -55 -10
-55 -15 0 -5 12 -32 26 -60 14 -28 22 -54 17 -58 -4 -4 -224 -45 -488 -89
-264 -45 -492 -84 -508 -87 -26 -5 -29 -2 -67 80 -22 48 -40 88 -40 90 0 11
274 126 301 126 l31 0 -4 -70 -4 -71 36 3 c34 3 36 5 94 126 33 67 64 122 70
122 6 0 43 -27 81 -60 39 -33 73 -60 77 -60 13 0 248 113 248 119 0 4 -22 32
-50 63 -27 31 -50 61 -50 66 0 13 1 13 159 49 l124 28 25 51 24 51 182 85 c99
48 185 85 190 84 6 -1 13 -14 17 -27z m-1389 -1099 c60 -12 71 -19 60 -36 -4
-6 -74 -66 -156 -134 -145 -121 -150 -124 -233 -146 -76 -21 -89 -22 -112 -9
-24 12 -41 10 -157 -15 -109 -25 -151 -30 -272 -30 -131 0 -143 2 -140 17 5
26 223 101 442 154 l179 43 44 67 45 67 101 20 c56 12 111 19 122 17 11 -2 46
-9 77 -15z m1268 -1263 c99 -40 110 -47 205 -138 110 -107 232 -179 300 -179
21 0 65 -15 106 -35 l70 -36 -3 -47 -3 -47 -64 -3 c-63 -3 -65 -2 -105 37 -33
32 -55 43 -119 59 -70 18 -82 19 -131 6 -29 -8 -70 -21 -91 -30 -45 -18 -38
-27 -131 146 -37 69 -96 164 -131 212 -91 124 -85 128 97 55z m620 -767 l26
-45 465 -177 c255 -98 465 -178 467 -178 1 0 -7 19 -19 41 -32 64 -12 70 160
44 93 -14 120 -25 482 -188 457 -207 509 -233 509 -252 0 -9 -34 -25 -102 -45
-57 -18 -138 -42 -181 -56 -97 -30 -100 -30 -145 1 -20 14 -43 25 -52 25 -34
0 -170 -34 -170 -43 0 -5 16 -32 36 -59 20 -29 33 -56 30 -65 -7 -17 9 -26
-173 95 l-113 75 -122 -7 c-68 -3 -133 -9 -146 -12 -27 -8 -32 -4 156 -108 80
-45 101 -61 92 -71 -9 -10 -27 -9 -98 10 -76 19 -1385 515 -1400 530 -10 10
71 85 124 116 48 27 58 29 161 29 l109 0 27 55 c15 31 22 57 17 60 -5 3 -117
51 -247 106 -211 88 -289 128 -258 130 6 0 78 8 160 18 83 11 156 18 164 17 8
0 27 -21 41 -46z m3034 -860 c184 -19 320 -41 332 -53 3 -3 -4 -23 -15 -46
-12 -22 -21 -42 -21 -45 0 -2 25 -10 55 -16 34 -7 55 -17 55 -25 0 -15 0 -16
-128 -45 l-94 -21 -176 104 c-98 57 -192 112 -209 121 -35 18 -44 46 -15 46
10 0 107 -9 216 -20z m-1179 -186 c171 -69 319 -133 330 -140 11 -8 29 -14 42
-14 24 0 40 -17 27 -30 -5 -5 -80 -19 -167 -30 l-158 -22 -47 38 c-67 54 -344
285 -361 300 -15 14 -5 38 13 30 6 -2 151 -62 321 -132z m-649 -16 c115 -20
131 -21 221 -8 l97 13 65 -71 66 -70 165 -62 c234 -88 1004 -381 1012 -386 4
-3 5 -11 1 -19 -4 -13 -41 -15 -217 -16 -116 -1 -256 -4 -310 -8 l-99 -6 -15
-43 -14 -42 89 -168 c113 -211 146 -283 135 -294 -5 -5 -64 1 -138 16 -71 13
-130 23 -131 22 -1 -1 19 -26 44 -56 l46 -55 -134 -3 -134 -3 -78 40 c-43 22
-166 88 -273 147 l-194 107 -171 291 -171 291 -8 194 c-5 107 -7 198 -4 203 7
11 11 11 150 -14z"/>
</g>
</svg>
