<?xml version="1.0" encoding="UTF-8" standalone="no"?>
<!-- Created with Inkscape (http://www.inkscape.org/) -->

<svg
   xmlns:dc="http://purl.org/dc/elements/1.1/"
   xmlns:cc="http://creativecommons.org/ns#"
   xmlns:rdf="http://www.w3.org/1999/02/22-rdf-syntax-ns#"
   xmlns:svg="http://www.w3.org/2000/svg"
   xmlns="http://www.w3.org/2000/svg"
   xmlns:sodipodi="http://sodipodi.sourceforge.net/DTD/sodipodi-0.dtd"
   xmlns:inkscape="http://www.inkscape.org/namespaces/inkscape"
   width="60mm"
   height="70mm"
   viewBox="0 0 60 70"
   version="1.1"
   id="svg8"
   inkscape:version="0.92.5 (2060ec1f9f, 2020-04-08)"
   sodipodi:docname="logo_transparency.svg">
  <defs
     id="defs2">
    <clipPath
       clipPathUnits="userSpaceOnUse"
       id="clipPath2223">
      <rect
         style="opacity:1;fill:#d5d5d5;fill-opacity:1;fill-rule:nonzero;stroke:none;stroke-width:9.44881916;stroke-linecap:butt;stroke-linejoin:miter;stroke-miterlimit:4;stroke-dasharray:none;stroke-dashoffset:0;stroke-opacity:1"
         id="rect2225"
         width="505.9006"
         height="277.18253"
         x="-576.47162"
         y="47.029053" />
    </clipPath>
    <clipPath
       clipPathUnits="userSpaceOnUse"
       id="clipPath2223-5">
      <rect
         style="opacity:1;fill:#d5d5d5;fill-opacity:1;fill-rule:nonzero;stroke:none;stroke-width:9.44881916;stroke-linecap:butt;stroke-linejoin:miter;stroke-miterlimit:4;stroke-dasharray:none;stroke-dashoffset:0;stroke-opacity:1"
         id="rect2225-6"
         width="505.9006"
         height="277.18253"
         x="-576.47162"
         y="47.029053" />
    </clipPath>
    <clipPath
       clipPathUnits="userSpaceOnUse"
       id="clipPath2603">
      <rect
         style="opacity:1;fill:#000000;fill-opacity:1;fill-rule:nonzero;stroke:none;stroke-width:2.5;stroke-linecap:butt;stroke-linejoin:miter;stroke-miterlimit:4;stroke-dasharray:none;stroke-dashoffset:0;stroke-opacity:1"
         id="rect2605"
         width="50"
         height="50"
         x="5"
         y="232" />
    </clipPath>
  </defs>
  <sodipodi:namedview
     id="base"
     pagecolor="#ffffff"
     bordercolor="#666666"
     borderopacity="1.0"
     inkscape:pageopacity="0.0"
     inkscape:pageshadow="2"
     inkscape:zoom="2.231923"
     inkscape:cx="134.19499"
     inkscape:cy="151.01618"
     inkscape:document-units="mm"
     inkscape:current-layer="layer1"
     showgrid="false"
     inkscape:window-width="1900"
     inkscape:window-height="1020"
     inkscape:window-x="10"
     inkscape:window-y="10"
     inkscape:window-maximized="0" />
  <metadata
     id="metadata5">
    <rdf:RDF>
      <cc:Work
         rdf:about="">
        <dc:format>image/svg+xml</dc:format>
        <dc:type
           rdf:resource="http://purl.org/dc/dcmitype/StillImage" />
        <dc:title></dc:title>
      </cc:Work>
    </rdf:RDF>
  </metadata>
  <g
     inkscape:label="Layer 1"
     inkscape:groupmode="layer"
     id="layer1"
     transform="translate(0,-227)">
    <path
       style="opacity:1;fill:#fefefe;fill-opacity:1;fill-rule:nonzero;stroke:none;stroke-width:7.68877888;stroke-linecap:butt;stroke-linejoin:miter;stroke-miterlimit:4;stroke-dasharray:none;stroke-dashoffset:0;stroke-opacity:1"
       d="M 0 0 L 0 264.56641 L 226.77148 264.56641 L 226.77148 0 L 0 0 z M 18.898438 18.898438 L 207.87305 18.898438 L 207.87305 207.87305 L 18.898438 207.87305 L 18.898438 18.898438 z M 123.11914 223.85938 C 123.58847 223.85938 123.98469 224.01984 124.30469 224.33984 C 124.62469 224.63851 124.7832 225.00107 124.7832 225.42773 C 124.7832 225.89707 124.62469 226.29133 124.30469 226.61133 C 123.98469 226.93133 123.58847 227.0918 123.11914 227.0918 C 122.64981 227.0918 122.25555 226.93133 121.93555 226.61133 C 121.61555 226.29133 121.45703 225.90698 121.45703 225.45898 C 121.45703 225.03232 121.61555 224.65984 121.93555 224.33984 C 122.25555 224.01984 122.64981 223.85937 123.11914 223.85938 z M 205.55273 223.85938 L 207.82422 223.85938 L 207.82422 247.60352 L 205.55273 247.60352 L 205.55273 223.85938 z M 86.960938 230.64258 C 89.158271 230.64258 90.842292 231.19731 92.015625 232.30664 C 93.188958 233.39464 93.775391 235.01526 93.775391 237.16992 L 93.775391 247.60352 L 91.599609 247.60352 L 91.599609 244.97852 C 91.087609 245.85318 90.330792 246.53668 89.328125 247.02734 C 88.346792 247.51801 87.173927 247.76367 85.808594 247.76367 C 83.931261 247.76367 82.437458 247.31397 81.328125 246.41797 C 80.218792 245.52197 79.664063 244.33919 79.664062 242.86719 C 79.664063 241.43785 80.177172 240.28482 81.201172 239.41016 C 82.246505 238.53549 83.898823 238.09961 86.160156 238.09961 L 91.503906 238.09961 L 91.503906 237.07422 C 91.503906 235.62355 91.099729 234.52596 90.289062 233.7793 C 89.478396 233.0113 88.293661 232.62695 86.736328 232.62695 C 85.669662 232.62695 84.645396 232.80726 83.664062 233.16992 C 82.682729 233.51126 81.840719 233.99266 81.136719 234.61133 L 80.111328 232.91406 C 80.964661 232.18873 81.988927 231.634 83.183594 231.25 C 84.37826 230.84467 85.638271 230.64258 86.960938 230.64258 z M 106.76758 230.64258 C 108.19691 230.64258 109.48863 230.93181 110.64062 231.50781 C 111.79262 232.08381 112.71983 232.91395 113.42383 234.00195 L 113.42383 230.77148 L 115.59961 230.77148 L 115.59961 245.55469 C 115.59961 248.41335 114.89628 250.52529 113.48828 251.89062 C 112.10161 253.27729 109.99959 253.9707 107.18359 253.9707 C 105.62626 253.9707 104.14433 253.73691 102.73633 253.26758 C 101.34966 252.81958 100.21842 252.18957 99.34375 251.37891 L 100.49609 249.65039 C 101.30676 250.37572 102.28745 250.94232 103.43945 251.34766 C 104.61279 251.75299 105.84109 251.95508 107.12109 251.95508 C 109.25443 251.95508 110.82155 251.45384 111.82422 250.45117 C 112.82689 249.46984 113.32812 247.93442 113.32812 245.84375 L 113.32812 243.69922 C 112.62413 244.76589 111.69692 245.57619 110.54492 246.13086 C 109.41426 246.68553 108.15424 246.96289 106.76758 246.96289 C 105.18891 246.96289 103.7486 246.62212 102.44727 245.93945 C 101.16727 245.23545 100.15487 244.26468 99.408203 243.02734 C 98.68287 241.76868 98.320313 240.35015 98.320312 238.77148 C 98.320313 237.19282 98.68287 235.78421 99.408203 234.54688 C 100.15487 233.30954 101.16727 232.34868 102.44727 231.66602 C 103.72727 230.98335 105.16758 230.64258 106.76758 230.64258 z M 138.92773 230.64258 C 140.33573 230.64258 141.55217 230.94173 142.57617 231.53906 C 143.62151 232.1364 144.40011 233.02198 144.91211 234.19531 C 145.53078 233.08598 146.41636 232.22218 147.56836 231.60352 C 148.74169 230.96352 150.07503 230.64258 151.56836 230.64258 C 153.68036 230.64258 155.33268 231.2508 156.52734 232.4668 C 157.74334 233.6828 158.35156 235.47575 158.35156 237.84375 L 158.35156 247.60352 L 156.08008 247.60352 L 156.08008 238.06641 C 156.08008 236.31707 155.65411 234.98374 154.80078 234.06641 C 153.96878 233.14907 152.78405 232.69141 151.24805 232.69141 C 149.49871 232.69141 148.12181 233.23427 147.11914 234.32227 C 146.11647 235.38893 145.61523 236.87282 145.61523 238.77148 L 145.61523 247.60352 L 143.34375 247.60352 L 143.34375 238.06641 C 143.34375 236.31707 142.91779 234.98374 142.06445 234.06641 C 141.23245 233.14907 140.0378 232.69141 138.48047 232.69141 C 136.75247 232.69141 135.37556 233.23427 134.35156 234.32227 C 133.3489 235.38893 132.84766 236.87282 132.84766 238.77148 L 132.84766 247.60352 L 130.57617 247.60352 L 130.57617 230.77148 L 132.75195 230.77148 L 132.75195 233.84375 C 133.34929 232.81975 134.18138 232.02928 135.24805 231.47461 C 136.31471 230.91994 137.54107 230.64258 138.92773 230.64258 z M 173.19922 230.64258 C 174.77789 230.64258 176.20828 231.00514 177.48828 231.73047 C 178.76828 232.43447 179.77076 233.43695 180.49609 234.73828 C 181.22143 236.03961 181.58398 237.5235 181.58398 239.1875 C 181.58398 240.87283 181.22143 242.36468 180.49609 243.66602 C 179.77076 244.96735 178.76828 245.9817 177.48828 246.70703 C 176.22961 247.41103 174.79922 247.76367 173.19922 247.76367 C 171.83389 247.76367 170.59761 247.48631 169.48828 246.93164 C 168.40028 246.35564 167.50478 245.52355 166.80078 244.43555 L 166.80078 253.81055 L 164.52734 253.81055 L 164.52734 230.77148 L 166.70312 230.77148 L 166.70312 234.09961 C 167.38579 232.99028 168.28324 232.1364 169.39258 231.53906 C 170.52324 230.94173 171.79122 230.64258 173.19922 230.64258 z M 192.75195 230.64258 C 194.30929 230.64258 195.70603 231.00514 196.94336 231.73047 C 198.18069 232.4558 199.15147 233.47015 199.85547 234.77148 C 200.55947 236.05148 200.91211 237.5235 200.91211 239.1875 L 200.88086 239.89062 L 186.80078 239.89062 C 186.92878 241.63996 187.60041 243.05848 188.81641 244.14648 C 190.03241 245.21315 191.56783 245.74609 193.42383 245.74609 C 194.46916 245.74609 195.43002 245.56579 196.30469 245.20312 C 197.17935 244.81913 197.93617 244.2644 198.57617 243.53906 L 199.85547 245.01172 C 199.1088 245.90772 198.16973 246.58926 197.03906 247.05859 C 195.92973 247.52793 194.70337 247.76367 193.35938 247.76367 C 191.63138 247.76367 190.09595 247.40111 188.75195 246.67578 C 187.42929 245.92911 186.3951 244.90485 185.64844 243.60352 C 184.90177 242.30218 184.52734 240.83017 184.52734 239.1875 C 184.52734 237.54483 184.87998 236.07282 185.58398 234.77148 C 186.30932 233.47015 187.29001 232.4558 188.52734 231.73047 C 189.78601 231.00514 191.19462 230.64258 192.75195 230.64258 z M 121.96875 230.77148 L 124.24023 230.77148 L 124.24023 247.60352 L 121.96875 247.60352 L 121.96875 230.77148 z M 192.75195 232.5957 C 191.13062 232.5957 189.76558 233.11678 188.65625 234.16211 C 187.56825 235.18611 186.95011 236.53131 186.80078 238.19531 L 198.73633 238.19531 C 198.58699 236.53131 197.95699 235.18611 196.84766 234.16211 C 195.75966 233.11678 194.39462 232.5957 192.75195 232.5957 z M 106.99219 232.62695 C 105.77619 232.62695 104.67665 232.88253 103.69531 233.39453 C 102.73531 233.90653 101.97849 234.63165 101.42383 235.57031 C 100.89049 236.50898 100.625 237.57682 100.625 238.77148 C 100.625 239.96615 100.89049 241.03204 101.42383 241.9707 C 101.97849 242.90937 102.73531 243.64635 103.69531 244.17969 C 104.67665 244.69169 105.77619 244.94727 106.99219 244.94727 C 108.20819 244.94727 109.30773 244.69169 110.28906 244.17969 C 111.2704 243.64635 112.02721 242.90937 112.56055 241.9707 C 113.11521 241.03204 113.39258 239.96615 113.39258 238.77148 C 113.39258 237.57682 113.11521 236.52085 112.56055 235.60352 C 112.02721 234.66485 111.2704 233.93973 110.28906 233.42773 C 109.32906 232.8944 108.22952 232.62695 106.99219 232.62695 z M 173.03906 232.62695 C 171.8444 232.62695 170.76859 232.90432 169.80859 233.45898 C 168.86993 234.01365 168.12303 234.79226 167.56836 235.79492 C 167.03503 236.77626 166.76758 237.9075 166.76758 239.1875 C 166.76758 240.4675 167.03503 241.60866 167.56836 242.61133 C 168.12303 243.61399 168.86993 244.3926 169.80859 244.94727 C 170.76859 245.4806 171.8444 245.74609 173.03906 245.74609 C 174.2124 245.74609 175.28023 245.4806 176.24023 244.94727 C 177.20023 244.3926 177.94714 243.61399 178.48047 242.61133 C 179.03514 241.60866 179.3125 240.4675 179.3125 239.1875 C 179.3125 237.9075 179.03514 236.77626 178.48047 235.79492 C 177.94714 234.79226 177.20023 234.01365 176.24023 233.45898 C 175.28023 232.90432 174.2124 232.62695 173.03906 232.62695 z M 86.224609 239.79492 C 83.34461 239.79492 81.904297 240.7974 81.904297 242.80273 C 81.904297 243.78407 82.276771 244.56267 83.023438 245.13867 C 83.770104 245.69334 84.816156 245.9707 86.160156 245.9707 C 87.440156 245.9707 88.539698 245.68342 89.457031 245.10742 C 90.374365 244.51009 91.055906 243.65621 91.503906 242.54688 L 91.503906 239.79492 L 86.224609 239.79492 z "
       transform="matrix(0.26458333,0,0,0.26458333,0,227)"
       id="rect1370" />
    <g
       id="g2586"
       clip-path="url(#clipPath2603)"
       transform="translate(-1.5875,-1.5875)">
      <g
         style="stroke:#fbfbfb;stroke-opacity:1"
         transform="matrix(0.10271365,0,0,0.10271365,64.334636,230.58422)"
         clip-path="url(#clipPath2223-5)"
         id="g2215">
        <polygon
           style="fill:none;stroke:#fbfbfb;stroke-width:1.57079995;stroke-linecap:round;stroke-linejoin:round;stroke-miterlimit:10;stroke-opacity:1"
           id="polygon2044"
           points="159.577,60.951 157.67,59.807 154.326,64.267 152.213,65.264 151.833,75.942 148.311,82.69 141.564,97.741 141.182,100 141.33,108.391 132.88,118.717 128.479,136.876 128.479,136.876 123.991,140.34 116.157,146.47 114.485,147.086 108.266,153.776 107.943,154.069 92.129,162.665 87.348,176.747 87.436,177.041 80.659,187.69 81.099,198.955 78.898,207.992 78.898,207.316 78.224,208.667 75.026,218.26 65.814,225.946 54.343,241.671 42.109,251.646 24.477,254.815 18.815,252.849 11.539,256.81 6.053,260.534 5.995,505.65 5.907,505.65 469.12,505.65 469.12,226.327 450.635,209.282 435.029,195.906 365.851,161.755 345.547,151.957 318.94,132.418 312.485,131.421 311.781,134.618 294.676,129.661 279.539,115.695 278.014,110.063 272.733,106.865 271.881,88.705 257.036,67.259 241.313,44.288 226.937,32.582 224.121,27.8 200.034,10.227 196.602,10.227 188.475,5.65 174.54,21.874 174.099,25.365 171.811,47.574 170.754,53.47 164.887,53.793 161.572,61.772 "
           stroke-miterlimit="10"
           transform="translate(-557.93192,64.931733)" />
        <polyline
           style="fill:none;stroke:#fbfbfb;stroke-width:3.1415;stroke-miterlimit:10;stroke-opacity:1"
           id="polyline2046"
           points="78.898,207.316 78.224,208.667    75.026,218.26 65.814,225.946 54.343,241.671 42.109,251.646 24.477,254.815 18.815,252.849 11.539,256.81 6.053,260.534    6.053,260.534 5.995,505.65 5.907,505.65 469.12,505.65 469.12,226.327 450.635,209.282 435.029,195.906 365.851,161.755    345.547,151.957 318.94,132.418 312.485,131.421 311.781,134.618 294.676,129.661 279.539,115.695 278.014,110.063    272.733,106.865 271.881,88.705 257.036,67.259 241.313,44.288 226.937,32.582 224.121,27.8 200.034,10.227 196.602,10.227    188.475,5.65 174.54,21.874 174.099,25.365 171.811,47.574 170.754,53.47 164.887,53.793 161.572,61.772 159.577,60.951    157.67,59.807 154.326,64.267 152.213,65.264 151.833,75.942 148.311,82.69 141.564,97.741 141.182,100 141.33,108.391    132.88,118.717 128.479,136.876 128.479,136.876 123.991,140.34 116.157,146.47 114.485,147.086 108.266,153.776 107.943,154.069    92.129,162.665 87.348,176.747 87.436,177.041 80.659,187.69 81.099,198.955 78.898,207.992 78.898,207.316  "
           stroke-miterlimit="10"
           transform="translate(-557.93192,64.931733)" />
      </g>
      <polygon
         points="195.604,71.131 190.382,76.852 188.709,76.677 186.773,76.148 185.717,76.53 189.149,70.604 190.294,71.806 191.204,69.166 192.347,60.951 196.513,56.609 197.217,61.772 199.124,61.245 197.658,64.442 195.985,67.934 "
         id="polygon2048"
         style="clip-rule:evenodd;fill-rule:evenodd"
         transform="matrix(0.10271365,0,0,0.10271365,7.0267908,237.25278)" />
      <polyline
         stroke-miterlimit="10"
         points="   185.717,76.53 189.149,70.604 190.294,71.806 191.204,69.166 192.347,60.951 196.513,56.609 197.217,61.772 199.124,61.245    197.658,64.442 195.985,67.934 195.604,71.131 190.382,76.852 188.709,76.677 186.773,76.148 185.717,76.53  "
         id="polyline2050"
         style="fill:#fcfcfc;fill-opacity:1;fill-rule:nonzero;stroke:#ffffff;stroke-width:1.46689999;stroke-linecap:round;stroke-linejoin:round;stroke-miterlimit:10;stroke-opacity:1"
         transform="matrix(0.10271365,0,0,0.10271365,7.0267908,237.25278)" />
      <polygon
         points="177.209,77.821 175.596,77.058 175.83,75.386 177.209,72.422 176.446,68.461 178.969,71.278 182.167,68.638 183.664,70.281 183.664,73.566 178.441,81.019 178.441,81.224 177.825,79.405 "
         id="polygon2052"
         style="clip-rule:evenodd;fill-rule:evenodd"
         transform="matrix(0.10271365,0,0,0.10271365,7.0267908,237.25278)" />
      <polyline
         stroke-miterlimit="10"
         points="   178.441,81.224 177.825,79.405 177.209,77.821 175.596,77.058 175.83,75.386 177.209,72.422 176.446,68.461 178.969,71.278    182.167,68.638 183.664,70.281 183.664,73.566 178.441,81.019 178.441,81.224  "
         id="polyline2054"
         style="fill:#fcfcfc;fill-opacity:1;fill-rule:nonzero;stroke:#ffffff;stroke-width:1.46689999;stroke-linecap:round;stroke-linejoin:round;stroke-miterlimit:10;stroke-opacity:1"
         transform="matrix(0.10271365,0,0,0.10271365,7.0267908,237.25278)" />
      <polygon
         points="189.531,191.27 192.201,186.018 192.112,185.401 192.641,189.744 194.313,188.07 197.217,185.021 195.838,190.564 199.124,188.687 202.674,186.545 206.341,185.254 205.784,189.89 204.875,194.614 199.799,197.578 197.217,195.906 188.709,204.266 185.335,205.879 185.482,204.354 190.059,196.375 191.497,194.056 188.563,193.675 "
         id="polygon2056"
         style="clip-rule:evenodd;fill-rule:evenodd"
         transform="matrix(0.10271365,0,0,0.10271365,7.0267908,237.25278)" />
      <polyline
         stroke-miterlimit="10"
         points="   192.112,185.401 192.641,189.744 194.313,188.07 197.217,185.021 195.838,190.564 199.124,188.687 202.674,186.545    206.341,185.254 205.784,189.89 204.875,194.614 199.799,197.578 197.217,195.906 188.709,204.266 185.335,205.879    185.482,204.354 190.059,196.375 191.497,194.056 188.563,193.675 189.531,191.27 192.201,186.018 192.112,185.401  "
         id="polyline2058"
         style="fill:#fcfcfc;fill-opacity:1;fill-rule:nonzero;stroke:#ffffff;stroke-width:1.46689999;stroke-linecap:round;stroke-linejoin:round;stroke-miterlimit:10;stroke-opacity:1"
         transform="matrix(0.10271365,0,0,0.10271365,7.0267908,237.25278)" />
      <polygon
         points="172.133,307.74 180.553,311.379 188.093,318.77 194.929,322.261 198.596,322.645 203.73,325.077 203.349,327.982 199.183,328.13 196.132,324.933 189.238,323.083 185.101,324.08 181.786,325.402 179.262,321.058 175.537,314.048 170.608,307.388 "
         id="polygon2060"
         style="clip-rule:evenodd;fill:#ebebeb;fill-opacity:1;fill-rule:evenodd;stroke:#ffffff;stroke-opacity:1"
         transform="matrix(0.10271365,0,0,0.10271365,7.0267908,237.25278)" />
      <polyline
         stroke-miterlimit="10"
         points="   199.183,328.13 196.132,324.933 189.238,323.083 185.101,324.08 181.786,325.402 179.262,321.058 175.537,314.048 170.608,307.388    172.133,307.74 180.553,311.379 188.093,318.77 194.929,322.261 198.596,322.645 203.73,325.077 203.349,327.982 199.183,328.13    199.183,328.13  "
         id="polyline2062"
         style="fill:#fafafa;fill-opacity:1;stroke:#ffffff;stroke-width:1.46689999;stroke-linecap:round;stroke-linejoin:round;stroke-miterlimit:10;stroke-opacity:1"
         transform="matrix(0.10271365,0,0,0.10271365,7.0267908,237.25278)" />
      <polygon
         points="129.829,241.143 130.357,234.981 128.245,235.276 118.211,239.822 121.086,245.866 162.305,238.854 159.489,233.457 165.269,232.871 181.316,217.203 180.495,210.868 165.797,217.791 163.831,221.986 152.272,224.655 157.289,230.171 145.29,235.833 139.041,230.493 136.694,235.276 134.405,240.528 129.975,241.289 "
         id="polygon2064"
         style="clip-rule:evenodd;fill-rule:evenodd"
         transform="matrix(0.10271365,0,0,0.10271365,7.0267908,237.25278)" />
      <polyline
         stroke-miterlimit="10"
         points="   129.829,241.143 130.357,234.981 128.245,235.276 118.211,239.822 121.086,245.866 162.305,238.854 159.489,233.457    165.269,232.871 181.316,217.203 180.495,210.868 165.797,217.791 163.831,221.986 152.272,224.655 157.289,230.171    145.29,235.833 139.041,230.493 136.694,235.276 134.405,240.528 129.975,241.289 129.829,241.143  "
         id="polyline2066"
         style="fill:#fcfcfc;fill-opacity:1;fill-rule:nonzero;stroke:#ffffff;stroke-width:1.46689999;stroke-linecap:round;stroke-linejoin:round;stroke-miterlimit:10;stroke-opacity:1"
         transform="matrix(0.10271365,0,0,0.10271365,7.0267908,237.25278)" />
      <polygon
         points="108.471,263.646 112.108,258.16 120.412,256.633 125.897,257.776 113.429,268.134 106.975,269.747 104.979,268.575 98.144,270.128 93.655,271.098 82.918,271.244 83.065,271.039 94.33,267.048 "
         id="polygon2068"
         style="clip-rule:evenodd;fill-rule:evenodd"
         transform="matrix(0.10271365,0,0,0.10271365,7.0267908,237.25278)" />
      <polyline
         stroke-miterlimit="10"
         points="   83.065,271.039 94.33,267.048 108.471,263.646 112.108,258.16 120.412,256.633 125.897,257.776 113.429,268.134 106.975,269.747    104.979,268.575 98.144,270.128 93.655,271.098 82.918,271.244 83.065,271.039  "
         id="polyline2070"
         style="fill:#fcfcfc;fill-opacity:1;fill-rule:nonzero;stroke:#ffffff;stroke-width:1.46689999;stroke-linecap:round;stroke-linejoin:round;stroke-miterlimit:10;stroke-opacity:1"
         transform="matrix(0.10271365,0,0,0.10271365,7.0267908,237.25278)" />
      <polygon
         points="334.519,385.22 342.967,383.314 342.644,383.314 337.804,382.346 339.857,378.357 334.665,377.299 317.795,375.568 319.32,376.243 "
         id="polygon2072"
         style="clip-rule:evenodd;fill-rule:evenodd"
         transform="matrix(0.10271365,0,0,0.10271365,7.0267908,237.25278)" />
      <polyline
         stroke-miterlimit="10"
         points="   342.644,383.314 337.804,382.346 339.857,378.357 334.665,377.299 317.795,375.568 319.32,376.243 334.519,385.22 342.967,383.314    342.644,383.314  "
         id="polyline2074"
         style="fill:#ffffff;fill-opacity:1;stroke:#ffffff;stroke-width:1.46689999;stroke-linecap:round;stroke-linejoin:round;stroke-miterlimit:10;stroke-opacity:1"
         transform="matrix(0.10271365,0,0,0.10271365,7.0267908,237.25278)" />
      <polygon
         points="192.787,105.72 192.641,105.047 198.655,95.834 197.511,93.487 201.53,89.38 203.202,85.889 212.326,63.211 212.795,58.81 210.361,59.807 207.867,63.152 205.402,68.08 202.146,67.553 196.836,72.1 197.892,73.185 198.127,74.095 199.887,73.478 202.528,71.425 203.73,71.278 202.293,74.623 199.711,79.728 192.582,93.868 193.55,95.159 185.423,100.85 182.9,102.7 183.458,102.522 193.491,99.031 "
         id="polygon2076"
         style="clip-rule:evenodd;fill-rule:evenodd"
         transform="matrix(0.10271365,0,0,0.10271365,7.0267908,237.25278)" />
      <polyline
         stroke-miterlimit="10"
         points="   198.127,74.095 199.887,73.478 202.528,71.425 203.73,71.278 202.293,74.623 199.711,79.728 192.582,93.868 193.55,95.159    185.423,100.85 182.9,102.7 183.458,102.522 193.491,99.031 192.787,105.72 192.641,105.047 198.655,95.834 197.511,93.487    201.53,89.38 203.202,85.889 212.326,63.211 212.795,58.81 210.361,59.807 207.867,63.152 205.402,68.08 202.146,67.553    196.836,72.1 197.892,73.185 198.127,74.095  "
         id="polyline2078"
         style="fill:#fcfcfc;fill-opacity:1;fill-rule:nonzero;stroke:#ffffff;stroke-width:1.46689999;stroke-linecap:round;stroke-linejoin:round;stroke-miterlimit:10;stroke-opacity:1"
         transform="matrix(0.10271365,0,0,0.10271365,7.0267908,237.25278)" />
      <polygon
         points="269.212,390.092 290.218,398.071 315.8,407.87 317.943,408.631 317.355,408.72 292.243,409.042 290.893,413.503 291.274,414.647 297.259,425.882 300.397,432.22 287.666,429.843 296.642,440.875 300.104,444.746 300.104,444.599 287.899,438.233 270.65,428.876 260.527,423.243 246.564,399.596 245.947,383.784 256.597,385.748 264.342,384.604 "
         id="polygon2080"
         style="clip-rule:evenodd;fill:#ffffff;fill-opacity:1;fill-rule:evenodd;stroke:none;stroke-opacity:1"
         transform="matrix(0.10271365,0,0,0.10271365,7.0267908,237.25278)" />
      <polyline
         stroke-miterlimit="10"
         points="   317.355,408.72 292.243,409.042 290.893,413.503 291.274,414.647 297.259,425.882 300.397,432.22 287.666,429.843 296.642,440.875    300.104,444.746 300.104,444.599 287.899,438.233 270.65,428.876 260.527,423.243 246.564,399.596 245.947,383.784    256.597,385.748 264.342,384.604 269.212,390.092 290.218,398.071 315.8,407.87 317.943,408.631 317.355,408.72  "
         id="polyline2082"
         style="fill:none;stroke:#ffffff;stroke-width:1.46689999;stroke-linecap:round;stroke-linejoin:round;stroke-miterlimit:10;stroke-opacity:1"
         transform="matrix(0.10271365,0,0,0.10271365,7.0267908,237.25278)" />
      <polygon
         points="196.689,355.121 206.341,354.885 209.011,349.252 188.093,340.423 200.415,339.072 202.146,342.653 241.987,357.849 243.13,358.67 240.607,353.535 243.276,353.449 250.964,354.593 282.766,369.027 285.26,370.316 287.225,371.228 287.225,371.375 272.351,375.949 268.506,373.458 259.852,375.421 260.381,376.771 263.286,380.968 263.138,380.731 252.342,373.602 247.091,373.749 237.116,374.719 250.641,382.198 250.788,382.198 244.509,380.674 190.294,359.903 193.11,357.32 "
         id="polygon2084"
         style="clip-rule:evenodd;fill:#ffffff;fill-opacity:1;fill-rule:evenodd;stroke:#ffffff;stroke-opacity:1"
         transform="matrix(0.10271365,0,0,0.10271365,7.0267908,237.25278)" />
      <polyline
         stroke-miterlimit="10"
         points="   263.138,380.731 252.342,373.602 247.091,373.749 237.116,374.719 250.641,382.198 250.788,382.198 244.509,380.674    190.294,359.903 193.11,357.32 196.689,355.121 206.341,354.885 209.011,349.252 188.093,340.423 200.415,339.072 202.146,342.653    241.987,357.849 243.13,358.67 240.607,353.535 243.276,353.449 250.964,354.593 282.766,369.027 285.26,370.316 287.225,371.228    287.225,371.375 272.351,375.949 268.506,373.458 259.852,375.421 260.381,376.771 263.286,380.968 263.138,380.731  "
         id="polyline2086"
         style="fill:none;stroke:#ffffff;stroke-width:1.46689999;stroke-linecap:round;stroke-linejoin:round;stroke-miterlimit:10;stroke-opacity:1"
         transform="matrix(0.10271365,0,0,0.10271365,7.0267908,237.25278)" />
      <polygon
         points="264.958,378.59 281.475,392.291 291.42,390.941 294.148,390.619 292.476,390.619 290.598,389.239 265.251,378.912 "
         id="polygon2088"
         style="clip-rule:evenodd;fill:#ffffff;fill-opacity:1;fill-rule:evenodd"
         transform="matrix(0.10271365,0,0,0.10271365,7.0267908,237.25278)" />
      <polyline
         stroke-miterlimit="10"
         points="   292.476,390.619 290.598,389.239 265.251,378.912 264.958,378.59 281.475,392.291 291.42,390.941 294.148,390.619 292.476,390.619     "
         id="polyline2090"
         style="fill:none;stroke:#ffffff;stroke-width:1.46689999;stroke-linecap:round;stroke-linejoin:round;stroke-miterlimit:10;stroke-opacity:1"
         transform="matrix(0.10271365,0,0,0.10271365,7.0267908,237.25278)" />
      <polygon
         points="100.11,177.744 94.624,179.563 92.658,175.603 91.279,173.226 87.436,177.041 87.348,176.747 92.129,162.665 107.943,154.069 112.813,152.104 112.813,158.646 109.322,163.957 109.322,171.026 107.356,173.081 103.748,176.366 "
         id="polygon2092"
         style="clip-rule:evenodd;fill:#fcfcfc;fill-opacity:1;fill-rule:nonzero;stroke:#ffffff;stroke-opacity:1"
         transform="matrix(0.10271365,0,0,0.10271365,7.0267908,237.25278)" />
      <polyline
         stroke-miterlimit="10"
         points="   87.348,176.747 92.129,162.665 107.943,154.069 107.943,154.069 112.813,152.104 112.813,158.646 109.322,163.957 109.322,171.026    107.356,173.081 103.748,176.366 100.11,177.744 94.624,179.563 92.658,175.603 91.279,173.226 87.436,177.041 87.348,176.747  "
         id="polyline2094"
         style="fill:#ffffff;fill-opacity:1;stroke:#ffffff;stroke-width:1.46689999;stroke-linecap:round;stroke-linejoin:round;stroke-miterlimit:10;stroke-opacity:1"
         transform="matrix(0.10271365,0,0,0.10271365,7.0267908,237.25278)" />
      <polygon
         points="136.078,196.228 135.784,204.735 114.867,226.152 109.909,227.529 99.493,237.476 96.179,235.276 87.348,244.634 78.987,245.308 68.19,253.318 51.086,259.01 53.58,259.627 62.03,260.302 63.379,260.534 62.03,260.771 42.931,267.575 39.586,264.554 30.697,266.521 18.815,271.566 16.791,270.803 11.158,269.572 6.053,260.534 11.539,256.81 18.815,252.849 24.477,254.815 42.109,251.646 54.343,241.671 65.814,225.946 75.026,218.26 78.224,208.667 78.898,207.316 79.045,209.194 77.931,214.623 80.043,216.822 85.294,214.241 87.29,221.81 87.729,220.607 89.695,217.936 96.942,212.92 107.356,196.051 111.904,189.362 116.539,185.254 117.067,185.401 101.313,216.822 113.957,209.194 115.776,203.269 119.268,201.36 122.759,200.54 118.739,204.735 126.866,206.702 134.112,194.672 145.348,183.582 148.399,185.929 136.84,194.232 137.604,193.528 149.925,188.07 149.69,189.362 148.546,190.564 "
         id="polygon2096"
         style="clip-rule:evenodd;fill:#fcfcfc;fill-opacity:1;fill-rule:nonzero;stroke:#ffffff;stroke-opacity:1"
         transform="matrix(0.10271365,0,0,0.10271365,7.0267908,237.25278)" />
      <polyline
         stroke-miterlimit="10"
         points="   6.053,260.534 11.539,256.81 18.815,252.849 24.477,254.815 42.109,251.646 54.343,241.671 65.814,225.946 75.026,218.26    78.224,208.667 78.898,207.316 78.898,207.316 79.045,209.194 77.931,214.623 80.043,216.822 85.294,214.241 87.29,221.81    87.729,220.607 89.695,217.936 96.942,212.92 107.356,196.051 111.904,189.362 116.539,185.254 117.067,185.401 101.313,216.822    113.957,209.194 115.776,203.269 119.268,201.36 122.759,200.54 118.739,204.735 126.866,206.702 134.112,194.672 145.348,183.582    148.399,185.929 136.84,194.232 137.604,193.528 149.925,188.07 149.69,189.362 148.546,190.564 136.078,196.228 135.784,204.735    114.867,226.152 109.909,227.529 99.493,237.476 96.179,235.276 87.348,244.634 78.987,245.308 68.19,253.318 51.086,259.01    53.58,259.627 62.03,260.302 63.379,260.534 62.03,260.771 42.931,267.575 39.586,264.554 30.697,266.521 18.815,271.566    16.791,270.803 11.158,269.572 6.053,260.534  "
         id="polyline2098"
         style="fill:none;stroke:#ffffff;stroke-width:1.46689999;stroke-linecap:round;stroke-linejoin:round;stroke-miterlimit:10;stroke-opacity:1"
         transform="matrix(0.10271365,0,0,0.10271365,7.0267908,237.25278)" />
      <polyline
         stroke-miterlimit="10"
         points="   224.121,27.8 200.034,10.227 196.602,10.227 188.475,5.65 174.54,21.874 174.099,25.365 171.811,47.574 170.754,53.47    164.887,53.793 161.572,61.772 159.577,60.951 157.67,59.807 154.326,64.267 152.213,65.264 151.833,75.942 148.311,82.69    141.564,97.741 141.182,100 141.33,108.391 132.88,118.717 128.479,136.876 145.495,127.988 158.58,107.863 159.108,106.865    156.761,108.684 153.563,102.7 155.088,102.083 160.487,101.377 162.687,93.868 163.215,89.526 163.157,92.724 164.975,94.719    169.317,87.032 170.52,79.493 174.334,72.422 172.955,61.479 171.225,59.572 179.879,52.414 188.328,47.485 191.204,45.813    201.911,45.256 212.033,39.271 224.121,27.8  "
         id="polyline2100"
         style="fill:#fcfcfc;fill-opacity:1;stroke:#fbfbfb;stroke-width:1.46689999;stroke-linecap:round;stroke-linejoin:round;stroke-miterlimit:10;stroke-opacity:1"
         transform="matrix(0.10271365,0,0,0.10271365,7.0267908,237.25278)" />
      <polygon
         points="159.114,106.859 156.758,108.682 153.569,102.697 155.093,102.084 160.481,101.377 162.68,93.869 163.213,89.534 163.151,92.722 164.973,94.717 169.324,87.037 170.518,79.497 174.334,72.428 172.953,61.48 171.225,59.58 179.879,52.417 188.331,47.485 191.205,45.819 201.917,45.254 212.033,39.27 215.378,46.574 218.347,48.49 226.342,54.239 221.976,60.098 221.976,83.753 224.819,91.199 223.358,102.147 226.877,104.519 228.165,113.724 229.657,114.085 230.804,114.164 236.819,123.682 235.861,131.804 232.72,138.636 231.479,142.014 232.72,142.453 232.327,147.463 231.337,160.784 222.148,171.873 219.872,179.947 215.521,183.355 214.467,184.722 213.18,192.01 211.734,193.534 207.713,195.906 201.321,202.598 198.98,203.744 196.514,205.409 194.393,206.022 201.917,207.906 204.87,206.933 209.928,205.032 211.892,206.933 216.368,202.362 217.609,202.22 220.248,202.739 224.034,200.54 229.453,196.896 232.107,196.047 232.013,196.377 218.866,212.682 221.253,213.452 217.672,220.143 218.583,223.662 218.724,228.154 214.374,231.876 218.033,245.228 215.237,242.966 212.033,241.144 200.613,249.657 195.697,248.652 173.486,265.931 172.042,264.847 161.863,269.747 156.758,268.429 126.804,287.434 121.557,291.109 122.767,291.252 128.767,291.55 148.778,280.932 151.888,282.424 153.271,283.854 145.15,290.575 156.758,289.146 159.35,285.235 165.79,285.533 159.868,296.184 158.438,298.995 172.042,296.184 175.01,294.22 179.738,293.891 184.372,292.461 184.717,289.43 193.843,291.55 220.625,280.225 210.069,287.529 221.772,285.093 230.128,283.413 227.646,286.915 209.975,292.225 208.782,293.891 204.352,302.199 198.807,304.163 193.545,306.975 191.598,308.75 195.744,307.745 204.87,306.063 210.98,301.9 214.609,299.766 233.097,294.66 244.657,288.675 265.721,287.529 287.367,275.261 295.206,271.334 293.382,276.172 301.456,273.831 306.293,268.962 310.818,268.507 317.18,263.261 326.855,263.261 327.295,269.276 321.813,266.527 311.195,275.197 301.597,275.197 297.781,281.513 283.062,283.648 272.351,288.675 270.182,290.198 277.864,291.927 280.392,291.628 285.843,288.959 297.028,284.622 296.65,287.151 300.844,285.817 311.494,282.188 320.62,281.513 333.311,285.299 335.982,295.413 337.804,300.911 343.695,301.9 340.976,307.383 339.705,308.436 328.379,303.33 315.28,297.88 317.274,301.43 317.73,302.577 317.73,302.812 302.981,297.267 303.796,299.23 307.991,302.875 322.662,308.498 382.068,319.871 382.43,319.775 382.665,319.981 382.068,319.871 374.057,321.787 389.262,324.175 388.587,326.688 377.638,327.521 374.969,330.771 366.313,328.808 362.952,332.437 354.438,331.447 342.265,341.421 351.234,343.039 343.695,346.385 339.154,347.956 333.987,342.474 341.15,340.369 349.427,331.307 335.039,324.85 332.463,328.039 326.149,328.369 323.337,322.791 296.492,321.064 292.927,320.891 295.206,322.116 305.179,325.698 295.817,329.326 293.382,334.667 320.463,337.306 325.159,340.651 323.337,341.044 310.143,340.51 303.796,338.154 296.87,340.651 304.801,345.992 332.023,349.4 333.845,355.118 304.471,348.631 299.729,345.175 266.869,338.83 265.784,339.128 260.757,340.81 255.073,337.872 231.479,344.328 240.166,346.825 246.559,345.474 249.15,345.003 246.952,345.756 242.993,350.076 255.213,350.924 262.47,347.956 262.846,347.814 260.757,350.987 263.757,350.453 268.973,348.819 276.576,343.793 285.843,347.956 284.884,354.6 291.89,353.297 302.651,350.846 299.493,357.616 301.692,359.281 311.776,355.653 311.776,356.705 310.346,359.956 324.484,360.569 321.515,361.574 301.159,365.391 307.142,367.261 337.191,373.276 335.746,369.083 356.966,377.393 361.742,379.591 356.668,380.438 354.438,380.58 356.432,382.12 374.292,390.414 377.403,391.623 345.17,384.461 346.632,386.659 348.595,388.56 340.379,390.555 336.124,396.634 355.757,395.346 368.434,401.205 369.721,408.257 384.094,406.577 382.743,417.462 402.88,431.991 424.557,434.237 434.265,447.747 451.605,455.191 464.548,467.57 469.026,468.778 469.12,319.07 469.12,226.332 450.632,209.289 435.034,195.906 365.857,161.758 345.547,151.956 318.938,132.416 312.484,131.426 311.776,134.615 294.671,129.667 279.545,115.703 278.02,110.063 272.727,106.859 271.878,88.702 257.036,67.26 241.311,44.28 226.94,32.578 224.128,27.803 200.032,10.226 196.608,10.226 188.472,5.655 174.539,21.882 174.099,25.368 171.806,47.579 170.753,53.469 164.895,53.799 161.564,61.779 159.57,60.946 157.669,59.799 154.323,64.261 152.218,65.266 151.826,75.947 148.307,82.686 141.569,97.734 141.176,99.996 141.333,108.383 132.882,118.719 128.484,136.877 145.496,127.986 158.58,107.865 "
         id="polygon2106"
         style="clip-rule:evenodd;fill:#ffffff;fill-opacity:1;fill-rule:nonzero;stroke:#fafafa;stroke-opacity:1"
         transform="matrix(0.10271365,0,0,0.10271365,7.0267908,237.25278)" />
      <polygon
         points="291.56,320.828 292.189,320.498 292.927,320.891 "
         id="polygon2108"
         style="clip-rule:evenodd;fill-rule:evenodd"
         transform="matrix(0.10271365,0,0,0.10271365,7.0267908,237.25278)" />
      <polygon
         points="382.43,319.775 382.665,319.981 382.068,319.871 "
         id="polygon2110"
         style="clip-rule:evenodd;fill-rule:evenodd"
         transform="matrix(0.10271365,0,0,0.10271365,7.0267908,237.25278)" />
      <polygon
         points="191.283,309.032 190.435,309.032 191.598,308.75 "
         id="polygon2112"
         style="clip-rule:evenodd;fill-rule:evenodd"
         transform="matrix(0.10271365,0,0,0.10271365,7.0267908,237.25278)" />
      <polygon
         points="218.033,245.228 218.127,245.306 218.049,245.306 "
         id="polygon2114"
         style="clip-rule:evenodd;fill-rule:evenodd"
         transform="matrix(0.10271365,0,0,0.10271365,7.0267908,237.25278)" />
      <polygon
         points="382.43,319.775 382.665,319.981 382.068,319.871 "
         id="polygon2116"
         style="clip-rule:evenodd;fill-rule:evenodd"
         transform="matrix(0.10271365,0,0,0.10271365,7.0267908,237.25278)" />
    </g>
  </g>
</svg>
